<svg width="110" height="112" viewBox="0 0 110 112" fill="none" xmlns="http://www.w3.org/2000/svg">
<g filter="url(#filter0_d_31_257)">
<path d="M43.24 15.737C44.1636 11.8115 49.1156 10.5383 51.8182 13.5314L65.7431 28.9539C66.7885 30.1117 68.3144 30.7153 69.8691 30.5859L90.5761 28.8618C94.5949 28.5272 97.3361 32.8434 95.3245 36.3386L84.9599 54.3477C84.1818 55.6998 84.0793 57.3376 84.6828 58.7761L92.7214 77.9369C94.2815 81.6556 91.0236 85.5964 87.0778 84.7634L66.7473 80.4712C65.221 80.149 63.6317 80.5576 62.45 81.5761L46.7111 95.1422C43.6565 97.7751 38.9018 95.8944 38.4748 91.8844L36.2744 71.2225C36.1092 69.6713 35.2294 68.2861 33.8957 67.477L16.1299 56.7006C12.6819 54.609 13.0013 49.506 16.6831 47.8606L35.6537 39.3831C37.078 38.7466 38.1236 37.4819 38.4809 35.9633L43.24 15.737Z" fill="#FFC21B"/>
<path d="M65.388 84.9846L62.45 81.5761L65.388 84.9846C65.5062 84.8828 65.6651 84.8419 65.8177 84.8741L86.1483 89.1663C93.6453 90.7491 99.8352 83.2616 96.871 76.196L88.8324 57.0352C88.7721 56.8914 88.7823 56.7276 88.8601 56.5924L99.2247 38.5832C103.047 31.9423 97.8385 23.7415 90.2027 24.3773L69.4957 26.1014C69.3402 26.1143 69.1876 26.054 69.0831 25.9382L55.1582 10.5158C50.0234 4.82869 40.6145 7.24784 38.8596 14.7063L34.1005 34.9327L38.4809 35.9633L34.1005 34.9327C34.0648 35.0845 33.9602 35.211 33.8178 35.2746L14.8471 43.7522C7.85166 46.8783 7.24492 56.5742 13.7961 60.548L31.5618 71.3245C31.6952 71.4054 31.7832 71.5439 31.7997 71.6991L34.0001 92.3609C34.8115 99.9801 43.8453 103.553 49.6491 98.5507L65.388 84.9846Z" stroke="white" stroke-width="9"/>
</g>
<defs>
<filter id="filter0_d_31_257" x="0.722412" y="0.872655" width="108.295" height="110.5" filterUnits="userSpaceOnUse" color-interpolation-filters="sRGB">
<feFlood flood-opacity="0" result="BackgroundImageFix"/>
<feColorMatrix in="SourceAlpha" type="matrix" values="0 0 0 0 0 0 0 0 0 0 0 0 0 0 0 0 0 0 127 0" result="hardAlpha"/>
<feOffset dy="2"/>
<feGaussianBlur stdDeviation="2"/>
<feComposite in2="hardAlpha" operator="out"/>
<feColorMatrix type="matrix" values="0 0 0 0 0.170833 0 0 0 0 0.0163715 0 0 0 0 0.0163715 0 0 0 0.1 0"/>
<feBlend mode="normal" in2="BackgroundImageFix" result="effect1_dropShadow_31_257"/>
<feBlend mode="normal" in="SourceGraphic" in2="effect1_dropShadow_31_257" result="shape"/>
</filter>
</defs>
</svg>
